<?xml version="1.0" encoding="UTF-8"?>
<svg class="jp-icon3" version="1.1" viewBox="0 0 192 192" xmlns="http://www.w3.org/2000/svg">
 <path fill="#5500aa" d="m13.774 190.86c-5.2034-1.383-11.266-7.7278-12.655-13.244-1.5699-6.2347-1.5699-156.88 0-163.12 1.493-5.9294 7.3929-11.829 13.322-13.322 6.2347-1.5699 156.88-1.5699 163.12 0 5.9294 1.493 11.829 7.3929 13.322 13.322 1.5699 6.2347 1.5699 156.88 0 163.12-1.493 5.9294-7.3929 11.829-13.322 13.322-5.7714 1.4532-158.3 1.3806-163.78-0.078zm90.226-42.803v-8l-8.75-0.0137c-13.925-0.0217-13.138 0.69903-13.468-12.345l-0.28174-11.142h-11.5c-6.325 0-12.288 0.32338-13.25 0.71862-1.5561 0.63898-1.75 2.3678-1.75 15.602 0 13.801 0.1645 15.128 2.2612 18.239 1.2437 1.8455 3.3812 3.6672 4.75 4.0482 1.3688 0.38101 11.376 0.73761 22.239 0.79243l19.75 0.0997zm28.035 5.5c4.5796-4.0878 4.9646-6.7681 4.9646-34.564 0-35.16 0.58689-34.289-23.75-35.259l-14.25-0.56778v16.786l10.5 0.60452 0.26598 27.843 0.26599 27.843 9.8814-0.34321c8.1583-0.28336 10.272-0.69198 12.122-2.3432zm-39.535-62v-8l-8-1-0.5374-46.72-10.969 0.37544c-16.388 0.56092-15.431-1.2993-15.754 30.621-0.19704 19.438 0.0537 26.335 1.0261 28.224 2.0026 3.8907 6.7345 4.9397 21.235 4.7079l13-0.20788zm43.5-36.477c1.1477-0.72437 1.5-3.0106 1.5-9.7347v-8.788l-47.5-0.5362v20.036l22.25-0.01531c12.246-0.0084 22.924-0.44099 23.75-0.96202z"/>
</svg>
