<?xml version="1.0" encoding="UTF-8"?>
<svg version="1.1" viewBox="0 0 16 16" xmlns="http://www.w3.org/2000/svg">
 <defs>
  <linearGradient id="BlueGreen" x2="0" y1="20" y2="180" gradientTransform="matrix(.032652 0 0 .032652 -.16134 3.4472)" gradientUnits="userSpaceOnUse">
   <stop stop-color="#0515fe" offset="0"/>
   <stop stop-color="#2cab28" offset="1"/>
  </linearGradient>
 </defs>
 <path d="m5.2622 3.5865a0.78373 0.78373 0 0 0-0.77185 0.79475v2.7847h-2.9229v-2.7738a0.78373 0.78373 0 0 0-0.79545-0.79475 0.78373 0.78373 0 0 0-0.77185 0.79475v7.1622a0.78373 0.78373 0 1 0 1.5673 0v-2.8211h4.4902v-3.5327c2.3805 0.22492 3.3059 1.5899 3.2949 2.8309-0.012074 1.3686-1.1541 2.8626-4.1233 2.7672a0.78373 0.78373 0 1 0-0.050317 1.5665c2.1801 0.07003 3.8328-0.70129 4.7927-1.8367v1.0903a0.78373 0.78373 0 1 0 1.5673 0v-2.8462h2.6107a0.78373 0.78373 0 1 0 0-1.5673h-2.6107v-2.0404h3.6663a0.78373 0.78373 0 1 0 0-1.5673h-9.8031a0.78373 0.78373 0 0 0-0.13992-0.011092z" fill="url(#BlueGreen)" stroke-width=".032652"/>
</svg>
